<svg width="1920" height="1080" viewBox="0 0 1920 1080" fill="none" xmlns="http://www.w3.org/2000/svg">
<path d="M1919.64 2C1919.64 2 1541.18 31.5446 1606.6 242.919C1669.53 446.268 1799.46 530.378 1799.46 758.439C1799.46 986.5 1919.64 1068.5 1919.64 1068.5L1919.64 2Z" fill="url(#paint0_linear_49_673)"/>
<path d="M0 1L0.364428 1079C0.364428 1079 147.577 998 166.554 857.5C185.532 717 254.252 683.318 260.201 592.274C266.788 491.476 -12.4367 533 185.532 287C383.5 41 0 1 0 1Z" fill="url(#paint1_linear_49_673)"/>
<defs>
<linearGradient id="paint0_linear_49_673" x1="1759.32" y1="1068.5" x2="1759.32" y2="2" gradientUnits="userSpaceOnUse">
<stop stop-color="#435782"/>
<stop offset="1" stop-color="#435782" stop-opacity="0"/>
</linearGradient>
<linearGradient id="paint1_linear_49_673" x1="130.158" y1="1" x2="130.158" y2="1079" gradientUnits="userSpaceOnUse">
<stop stop-color="#435782"/>
<stop offset="1" stop-color="#435782" stop-opacity="0"/>
</linearGradient>
</defs>
</svg>
