<svg width="1918" height="1080" viewBox="0 0 1918 1080" fill="none" xmlns="http://www.w3.org/2000/svg">
<path d="M88.7459 285.48C72.1739 285.48 57.342 282.373 44.2501 276.158C31.1583 269.861 20.7594 261.244 13.0534 250.306C5.43029 239.369 1.37015 226.857 0.872993 212.771H45.6173C46.4459 223.211 50.9618 231.745 59.1649 238.374C67.368 244.92 77.2283 248.193 88.7459 248.193C97.7776 248.193 105.815 246.122 112.858 241.979C119.901 237.836 125.453 232.077 129.513 224.702C133.573 217.328 135.562 208.918 135.479 199.472C135.562 189.86 133.532 181.325 129.389 173.868C125.246 166.411 119.57 160.569 112.361 156.343C105.152 152.034 96.8661 149.88 87.503 149.88C79.8799 149.797 72.381 151.206 65.0065 154.106C57.632 157.006 51.7904 160.817 47.4817 165.54L5.84458 158.705L19.1436 27.4545H166.8V65.9844H57.3006L49.9675 133.474H51.4589C56.1819 127.922 62.8522 123.323 71.4696 119.678C80.087 115.949 89.533 114.085 99.8077 114.085C115.22 114.085 128.974 117.73 141.072 125.022C153.169 132.231 162.698 142.174 169.659 154.852C176.619 167.529 180.099 182.03 180.099 198.353C180.099 215.174 176.204 230.171 168.416 243.346C160.71 256.438 149.979 266.754 136.225 274.294C122.553 281.751 106.726 285.48 88.7459 285.48Z" fill="#AAC4E0" fill-opacity="0.3"/>
<path d="M258.734 114.244H279.615L291.982 130.278L300.806 140.718L321.998 167.938H299.625L285.208 149.667L279.055 140.967L258.734 114.244ZM325.043 93.3636C325.043 107.077 322.474 118.822 317.337 128.6C312.241 138.336 305.281 145.793 296.456 150.972C287.673 156.151 277.709 158.74 266.564 158.74C255.42 158.74 245.435 156.151 236.61 150.972C227.827 145.752 220.867 138.274 215.73 128.538C210.634 118.76 208.086 107.036 208.086 93.3636C208.086 79.6503 210.634 67.9257 215.73 58.1896C220.867 48.4122 227.827 40.9341 236.61 35.7553C245.435 30.5766 255.42 27.9872 266.564 27.9872C277.709 27.9872 287.673 30.5766 296.456 35.7553C305.281 40.9341 312.241 48.4122 317.337 58.1896C322.474 67.9257 325.043 79.6503 325.043 93.3636ZM301.863 93.3636C301.863 83.7105 300.35 75.5695 297.326 68.9407C294.343 62.2705 290.2 57.2367 284.897 53.8395C279.594 50.4008 273.483 48.6815 266.564 48.6815C259.646 48.6815 253.535 50.4008 248.232 53.8395C242.929 57.2367 238.765 62.2705 235.74 68.9407C232.758 75.5695 231.266 83.7105 231.266 93.3636C231.266 103.017 232.758 111.179 235.74 117.849C238.765 124.478 242.929 129.511 248.232 132.95C253.535 136.347 259.646 138.046 266.564 138.046C273.483 138.046 279.594 136.347 284.897 132.95C290.2 129.511 294.343 124.478 297.326 117.849C300.35 111.179 301.863 103.017 301.863 93.3636Z" fill="#AAC4E0" fill-opacity="0.3"/>
<path d="M48.5953 486L7.5442 340.545H35.8823L62.0897 447.435H63.4391L91.422 340.545H117.203L145.257 447.506H146.536L172.743 340.545H201.081L160.03 486H134.036L104.916 383.94H103.78L74.5897 486H48.5953Z" fill="#AAC4E0" fill-opacity="0.3"/>
<path d="M270.651 305.636V301.034C270.651 297.653 271.361 294.543 272.782 291.702C274.231 288.861 276.333 286.574 279.089 284.841C281.844 283.108 285.182 282.241 289.103 282.241C293.137 282.241 296.518 283.108 299.245 284.841C301.972 286.545 304.032 288.818 305.424 291.659C306.844 294.5 307.555 297.625 307.555 301.034V305.636C307.555 309.017 306.844 312.128 305.424 314.969C304.003 317.81 301.915 320.097 299.16 321.83C296.432 323.563 293.08 324.429 289.103 324.429C285.126 324.429 281.759 323.563 279.003 321.83C276.248 320.097 274.16 317.81 272.739 314.969C271.347 312.128 270.651 309.017 270.651 305.636ZM281.773 301.034V305.636C281.773 307.881 282.313 309.94 283.393 311.815C284.472 313.69 286.376 314.628 289.103 314.628C291.859 314.628 293.748 313.705 294.77 311.858C295.822 309.983 296.347 307.909 296.347 305.636V301.034C296.347 298.761 295.85 296.688 294.856 294.812C293.861 292.909 291.944 291.957 289.103 291.957C286.432 291.957 284.543 292.909 283.435 294.812C282.327 296.688 281.773 298.761 281.773 301.034ZM226.29 255.693V251.091C226.29 247.682 227.015 244.557 228.464 241.716C229.912 238.875 232.015 236.602 234.77 234.898C237.526 233.165 240.864 232.298 244.785 232.298C248.79 232.298 252.157 233.165 254.884 234.898C257.64 236.602 259.714 238.875 261.106 241.716C262.498 244.557 263.194 247.682 263.194 251.091V255.693C263.194 259.102 262.484 262.227 261.063 265.068C259.671 267.881 257.597 270.139 254.841 271.844C252.086 273.548 248.734 274.401 244.785 274.401C240.779 274.401 237.398 273.548 234.643 271.844C231.915 270.139 229.841 267.866 228.421 265.026C227.001 262.185 226.29 259.074 226.29 255.693ZM237.498 251.091V255.693C237.498 257.966 238.023 260.04 239.074 261.915C240.154 263.761 242.057 264.685 244.785 264.685C247.512 264.685 249.387 263.761 250.41 261.915C251.461 260.04 251.986 257.966 251.986 255.693V251.091C251.986 248.818 251.489 246.744 250.495 244.869C249.501 242.966 247.597 242.014 244.785 242.014C242.086 242.014 240.197 242.966 239.117 244.869C238.037 246.773 237.498 248.847 237.498 251.091ZM231.148 322L291.148 234.727H301.802L241.802 322H231.148Z" fill="#AAC4E0" fill-opacity="0.3"/>
<path d="M1737.66 1059H1688.44L1778.05 804.455H1834.98L1924.72 1059H1875.5L1807.51 856.656H1805.52L1737.66 1059ZM1739.27 959.195H1873.51V996.234H1739.27V959.195Z" fill="#AAC4E0" fill-opacity="0.3"/>
<path d="M1677.28 857.671C1664.23 857.671 1652.63 855.89 1642.48 852.327C1632.37 848.805 1623.83 843.606 1616.87 836.728C1609.91 829.892 1604.63 821.544 1601.03 811.684C1597.42 801.824 1595.6 790.555 1595.56 777.877C1595.6 765.49 1597.44 754.324 1601.09 744.381C1604.74 734.396 1610.06 725.862 1617.06 718.777C1624.06 711.651 1632.62 706.183 1642.73 702.371C1652.84 698.56 1664.33 696.654 1677.22 696.654C1689.36 696.654 1700.11 698.497 1709.47 702.185C1718.87 705.872 1726.81 711.009 1733.27 717.597C1739.78 724.143 1744.69 731.807 1748 740.59C1751.36 749.332 1753.03 758.819 1753.03 769.053C1753.03 776.137 1752.5 782.849 1751.42 789.188C1750.34 795.485 1748.5 801.078 1745.89 805.967C1743.32 810.855 1739.82 814.75 1735.38 817.65C1730.95 820.509 1725.4 822.062 1718.73 822.311C1714.55 822.518 1710.88 822.124 1707.73 821.13C1704.58 820.136 1702.03 818.582 1700.09 816.469C1698.18 814.315 1696.98 811.684 1696.48 808.577H1695.74C1694.78 811.062 1692.98 813.341 1690.33 815.413C1687.72 817.443 1684.49 819.038 1680.64 820.198C1676.78 821.316 1672.49 821.772 1667.77 821.565C1662.72 821.316 1658.04 820.156 1653.73 818.085C1649.46 815.972 1645.73 813.03 1642.54 809.26C1639.39 805.449 1636.95 800.85 1635.21 795.464C1633.47 790.078 1632.6 783.967 1632.6 777.131C1632.6 770.461 1633.55 764.578 1635.46 759.482C1637.36 754.386 1639.91 750.036 1643.1 746.432C1646.33 742.827 1649.98 740.01 1654.04 737.98C1658.1 735.909 1662.28 734.583 1666.59 734.003C1671.06 733.381 1675.27 733.444 1679.21 734.189C1683.14 734.935 1686.41 736.074 1689.02 737.607C1691.68 739.14 1693.33 740.818 1694 742.641H1694.87V735.681H1712.2V794.843C1712.25 797.95 1712.99 800.456 1714.44 802.362C1715.93 804.268 1718 805.221 1720.66 805.221C1723.97 805.221 1726.64 803.916 1728.67 801.306C1730.74 798.654 1732.24 794.594 1733.15 789.125C1734.1 783.615 1734.56 776.572 1734.51 767.996C1734.56 760.953 1733.62 754.573 1731.72 748.855C1729.85 743.097 1727.2 738.042 1723.76 733.692C1720.32 729.342 1716.2 725.717 1711.4 722.817C1706.63 719.875 1701.33 717.659 1695.49 716.167C1689.65 714.676 1683.41 713.93 1676.78 713.93C1666.63 713.93 1657.7 715.484 1650 718.591C1642.29 721.657 1635.83 726.028 1630.61 731.703C1625.43 737.379 1621.51 744.112 1618.86 751.901C1616.25 759.648 1614.95 768.224 1614.95 777.629C1614.95 787.696 1616.32 796.624 1619.05 804.413C1621.83 812.16 1625.89 818.686 1631.23 823.989C1636.57 829.292 1643.18 833.31 1651.05 836.045C1658.97 838.779 1668.06 840.146 1678.34 840.146C1683.06 840.146 1687.68 839.773 1692.19 839.028C1696.71 838.282 1700.77 837.412 1704.37 836.418C1707.98 835.423 1710.75 834.553 1712.7 833.808L1717.98 849.592C1715.42 850.918 1711.94 852.202 1707.54 853.445C1703.19 854.688 1698.39 855.703 1693.13 856.49C1687.91 857.278 1682.62 857.671 1677.28 857.671ZM1672.93 803.729C1678.19 803.729 1682.4 802.714 1685.54 800.684C1688.69 798.613 1690.95 795.547 1692.32 791.487C1693.69 787.427 1694.35 782.372 1694.31 776.324C1694.31 770.689 1693.6 766.07 1692.19 762.465C1690.79 758.861 1688.53 756.189 1685.42 754.449C1682.31 752.708 1678.19 751.838 1673.05 751.838C1668.41 751.838 1664.46 752.895 1661.18 755.008C1657.95 757.121 1655.47 760.042 1653.73 763.77C1652.03 767.458 1651.18 771.663 1651.18 776.386C1651.18 781.109 1651.86 785.562 1653.23 789.747C1654.64 793.89 1656.92 797.266 1660.07 799.876C1663.26 802.445 1667.54 803.729 1672.93 803.729Z" fill="#AAC4E0" fill-opacity="0.3"/>
<path d="M1594.86 1014.28C1588.89 1014.28 1583.77 1013.2 1579.48 1011.04C1575.19 1008.88 1571.88 1005.97 1569.55 1002.3C1567.25 998.611 1566.1 994.449 1566.1 989.818C1566.1 986.324 1566.81 983.227 1568.23 980.528C1569.68 977.83 1571.66 975.33 1574.19 973.028C1576.75 970.727 1579.7 968.44 1583.06 966.168L1598.53 955.642C1600.8 954.165 1602.52 952.602 1603.68 950.955C1604.87 949.307 1605.47 947.375 1605.47 945.159C1605.47 943.284 1604.68 941.509 1603.08 939.832C1601.52 938.156 1599.36 937.318 1596.61 937.318C1594.76 937.318 1593.13 937.759 1591.71 938.639C1590.31 939.491 1589.22 940.614 1588.43 942.006C1587.66 943.398 1587.28 944.875 1587.28 946.438C1587.28 948.341 1587.8 950.273 1588.85 952.233C1589.93 954.193 1591.32 956.224 1593.03 958.327C1594.76 960.429 1596.61 962.659 1598.57 965.017L1639.52 1013H1622.81L1588.81 974.051C1586.28 971.097 1583.84 968.185 1581.48 965.315C1579.15 962.446 1577.23 959.463 1575.73 956.366C1574.25 953.241 1573.51 949.861 1573.51 946.224C1573.51 942.105 1574.46 938.426 1576.37 935.188C1578.27 931.92 1580.93 929.349 1584.33 927.474C1587.77 925.599 1591.79 924.662 1596.39 924.662C1601 924.662 1604.95 925.571 1608.24 927.389C1611.54 929.207 1614.08 931.622 1615.87 934.634C1617.66 937.645 1618.55 940.926 1618.55 944.477C1618.55 948.597 1617.53 952.29 1615.49 955.557C1613.44 958.795 1610.6 961.736 1606.96 964.378L1589.32 977.29C1586.42 979.392 1584.35 981.523 1583.1 983.682C1581.85 985.812 1581.22 987.631 1581.22 989.136C1581.22 991.437 1581.81 993.526 1582.97 995.401C1584.14 997.276 1585.77 998.781 1587.87 999.918C1590 1001.03 1592.49 1001.58 1595.33 1001.58C1598.45 1001.58 1601.54 1000.88 1604.58 999.491C1607.62 998.071 1610.39 996.054 1612.89 993.44C1615.39 990.827 1617.37 987.702 1618.85 984.065C1620.33 980.401 1621.07 976.338 1621.07 971.878H1634.32C1634.32 977.389 1633.71 982.19 1632.49 986.281C1631.27 990.344 1629.69 993.781 1627.76 996.594C1625.83 999.378 1623.78 1001.61 1621.62 1003.28C1620.94 1003.77 1620.29 1004.25 1619.66 1004.73C1619.04 1005.22 1618.38 1005.7 1617.7 1006.18C1614.63 1008.97 1611.04 1011.01 1606.92 1012.32C1602.83 1013.62 1598.81 1014.28 1594.86 1014.28Z" fill="#AAC4E0" fill-opacity="0.3"/>
<path d="M1852.39 759.989C1842.16 759.989 1833.07 758.237 1825.11 754.733C1817.21 751.229 1810.96 746.352 1806.36 740.102C1801.77 733.852 1799.33 726.632 1799.05 718.44H1825.75C1825.99 722.37 1827.29 725.803 1829.66 728.739C1832.03 731.627 1835.18 733.876 1839.11 735.486C1843.04 737.096 1847.44 737.901 1852.32 737.901C1857.52 737.901 1862.14 737.001 1866.17 735.202C1870.19 733.355 1873.34 730.798 1875.61 727.531C1877.88 724.264 1879 720.5 1878.95 716.239C1879 711.835 1877.86 707.953 1875.54 704.591C1873.22 701.229 1869.86 698.601 1865.45 696.707C1861.1 694.813 1855.84 693.866 1849.69 693.866H1836.83V673.554H1849.69C1854.75 673.554 1859.18 672.678 1862.97 670.926C1866.8 669.174 1869.81 666.712 1871.99 663.54C1874.17 660.32 1875.23 656.603 1875.18 652.389C1875.23 648.27 1874.31 644.695 1872.42 641.665C1870.57 638.587 1867.94 636.196 1864.53 634.491C1861.17 632.787 1857.22 631.935 1852.67 631.935C1848.22 631.935 1844.1 632.74 1840.31 634.349C1836.52 635.959 1833.47 638.256 1831.15 641.239C1828.83 644.174 1827.6 647.678 1827.46 651.75H1802.1C1802.29 643.606 1804.64 636.456 1809.13 630.301C1813.68 624.098 1819.74 619.269 1827.32 615.812C1834.89 612.309 1843.39 610.557 1852.81 610.557C1862.52 610.557 1870.95 612.38 1878.1 616.026C1885.29 619.624 1890.86 624.477 1894.79 630.585C1898.72 636.693 1900.68 643.44 1900.68 650.827C1900.73 659.018 1898.31 665.884 1893.44 671.423C1888.61 676.963 1882.26 680.585 1874.4 682.29V683.426C1884.63 684.847 1892.47 688.634 1897.91 694.79C1903.4 700.898 1906.13 708.497 1906.08 717.588C1906.08 725.732 1903.76 733.024 1899.12 739.463C1894.53 745.855 1888.18 750.874 1880.09 754.52C1872.04 758.166 1862.8 759.989 1852.39 759.989Z" fill="#AAC4E0" fill-opacity="0.3"/>
</svg>
